<?xml version="1.0" encoding="UTF-8"?>
<!-- Do not edit this file with editors other than draw.io -->
<!DOCTYPE svg PUBLIC "-//W3C//DTD SVG 1.1//EN" "http://www.w3.org/Graphics/SVG/1.1/DTD/svg11.dtd">
<svg xmlns="http://www.w3.org/2000/svg" xmlns:xlink="http://www.w3.org/1999/xlink" version="1.1" width="272px" height="212px" viewBox="-0.5 -0.5 272 212" content="&lt;mxfile host=&quot;app.diagrams.net&quot; modified=&quot;2024-02-12T13:42:58.871Z&quot; agent=&quot;Mozilla/5.0 (Macintosh; Intel Mac OS X 10_15_7) AppleWebKit/605.1.15 (KHTML, like Gecko) Version/17.3 Safari/605.1.15&quot; etag=&quot;nmTDLLdHEp57ISkmZIXs&quot; version=&quot;23.1.2&quot; type=&quot;device&quot;&gt;&#10;  &lt;diagram name=&quot;Page-1&quot; id=&quot;xFOLPRoowmfsf0dSR5QG&quot;&gt;&#10;    &lt;mxGraphModel dx=&quot;1016&quot; dy=&quot;612&quot; grid=&quot;1&quot; gridSize=&quot;10&quot; guides=&quot;1&quot; tooltips=&quot;1&quot; connect=&quot;1&quot; arrows=&quot;1&quot; fold=&quot;1&quot; page=&quot;1&quot; pageScale=&quot;1&quot; pageWidth=&quot;827&quot; pageHeight=&quot;1169&quot; math=&quot;0&quot; shadow=&quot;0&quot;&gt;&#10;      &lt;root&gt;&#10;        &lt;mxCell id=&quot;0&quot; /&gt;&#10;        &lt;mxCell id=&quot;1&quot; parent=&quot;0&quot; /&gt;&#10;        &lt;mxCell id=&quot;cHvR07OjGnargF7YpYcC-1&quot; value=&quot;&quot; style=&quot;html=1;verticalLabelPosition=bottom;align=center;labelBackgroundColor=#ffffff;verticalAlign=top;strokeWidth=2;strokeColor=#0080F0;shadow=0;dashed=0;shape=mxgraph.ios7.icons.chat;&quot; vertex=&quot;1&quot; parent=&quot;1&quot;&gt;&#10;          &lt;mxGeometry x=&quot;280&quot; y=&quot;190&quot; width=&quot;270&quot; height=&quot;210&quot; as=&quot;geometry&quot; /&gt;&#10;        &lt;/mxCell&gt;&#10;        &lt;mxCell id=&quot;cHvR07OjGnargF7YpYcC-2&quot; value=&quot;&quot; style=&quot;verticalLabelPosition=bottom;html=1;verticalAlign=top;align=center;strokeColor=none;fillColor=#00BEF2;shape=mxgraph.azure.user;&quot; vertex=&quot;1&quot; parent=&quot;1&quot;&gt;&#10;          &lt;mxGeometry x=&quot;330&quot; y=&quot;260&quot; width=&quot;150&quot; height=&quot;140&quot; as=&quot;geometry&quot; /&gt;&#10;        &lt;/mxCell&gt;&#10;      &lt;/root&gt;&#10;    &lt;/mxGraphModel&gt;&#10;  &lt;/diagram&gt;&#10;&lt;/mxfile&gt;&#10;"><defs/><g><path d="M 149.5 1 C 164.41 1 176.5 16.67 176.5 36 L 176.5 106 C 176.5 125.33 164.41 141 149.5 141 L 68.5 141 L 41.5 176 L 41.5 141 L 28 141 C 13.09 141 1 125.33 1 106 L 1 36 C 1 16.67 13.09 1 28 1 Z" fill="rgb(255, 255, 255)" stroke="#0080f0" stroke-width="2" stroke-miterlimit="10" pointer-events="all"/><path d="M 244 36 C 258.91 36 271 51.67 271 71 L 271 141 C 271 160.33 258.91 176 244 176 L 230.5 176 L 230.5 211 L 203.5 176 L 122.5 176 C 107.59 176 95.5 160.33 95.5 141 L 95.5 71 C 95.5 51.67 107.59 36 122.5 36 Z" fill="rgb(255, 255, 255)" stroke="#0080f0" stroke-width="2" stroke-miterlimit="10" pointer-events="all"/><path d="M 93.88 111.28 C 93.65 100.7 97.67 90.48 105.02 82.9 C 112.38 75.33 122.46 71.04 132.99 71 C 156.48 71.23 175.64 89.15 176.5 111.7 C 177.38 122.08 173.83 132.35 166.68 140.13 C 159.52 147.9 149.39 152.49 138.64 152.83 C 114.86 153.28 95.03 134.87 93.88 111.28 Z M 51 211 C 51.94 191.32 60.2 172.98 73.77 160.44 C 84.54 150.97 99.53 150.4 110.84 159.03 C 117.3 163.27 124.38 166.68 131.89 169.17 C 139.61 172.15 148.06 171.64 155.45 167.76 C 159.5 166.02 163.09 163.52 165.97 160.44 C 168.83 157.4 173.78 156.79 177.44 159.03 C 183.9 162.88 189.69 169.67 194.25 178.75 C 198.64 189.04 200.93 199.95 201 210.97 Z" fill="#00bef2" stroke="none" pointer-events="all"/></g></svg>